<?xml version="1.0" encoding="UTF-8"?>
<svg id="Layer_1" data-name="Layer 1" xmlns="http://www.w3.org/2000/svg" viewBox="0 0 484.22 162.16">
  <defs>
    <style>
      .cls-1 {
        fill: #231f20;
        font-family: Hey-Comic, 'Hey Comic';
        font-size: 75.85px;
      }

      .cls-2 {
        fill: #847ebb;
      }

      .cls-2, .cls-3, .cls-4 {
        stroke: #231f20;
        stroke-miterlimit: 10;
        stroke-width: 3px;
      }

      .cls-3 {
        fill: #221d5b;
      }

      .cls-4 {
        fill: #fac7c2;
      }
    </style>
  </defs>
  <text class="cls-1" transform="translate(166.8 103.03)"><tspan x="0" y="0">Friendify</tspan></text>
  <g>
    <rect class="cls-2" x="10.45" y="8.86" width="99.5" height="118.14" transform="translate(-10 10.4) rotate(-9.12)"/>
    <rect class="cls-4" x="24.99" y="20.37" width="99.5" height="118.14" transform="translate(5.94 -5.19) rotate(4.14)"/>
    <path class="cls-3" d="m124.93,17.59L30.08,47.66l35.69,112.62,94.85-30.06L124.93,17.59Zm-.13,42.34c-.15,1.45-.38,2.77-.69,3.96-.31,1.19-.73,2.2-1.26,3.04-.54.84-1.23,1.34-2.07,1.49-1.23,0-3.71-.23-7.46-.69-1.76-.15-3.77-.34-6.03-.57-2.26-.23-4.57-.46-6.94-.69-1.15-.08-2.32-.13-3.5-.17-1.19-.04-2.32-.13-3.39-.29-.08,3.14-.1,6.24-.06,9.3.04,3.06.09,6.16.17,9.3,7.58-.92,15.15-1.03,22.73-.34.08,0,.19.04.34.11.15.08.38.27.69.57.23.46.44,1.07.63,1.84.19.77.25,1.8.17,3.1-.08,1.38-.19,2.79-.34,4.25-.15,1.45-.34,2.77-.57,3.96-.23,1.19-.54,2.2-.92,3.04-.38.84-.88,1.38-1.49,1.61h-1.89c-.88,0-1.97-.08-3.27-.23-2.6-.23-5.19-.44-7.75-.63-2.56-.19-5.19-.21-7.86-.06.23,4.75.48,9.47.75,14.18.27,4.71.59,9.39.98,14.06-.08.92-.27,1.8-.57,2.64-.38.69-.92,1.34-1.6,1.95-.68.61-1.67,1.03-2.97,1.26-1.29.23-2.64.44-4.05.63-1.41.19-2.74.17-3.99-.06-1.26-.23-2.36-.77-3.31-1.61-.95-.84-1.61-2.14-1.99-3.9-.15-.84-.33-2.58-.52-5.22-.19-2.64-.36-5.91-.52-9.81-.31-10.48-.34-20.93-.12-31.34.23-10.41.61-20.89,1.15-31.45,0-.61.11-1.15.34-1.61.15-.38.46-.78.91-1.21.46-.42,1.1-.71,1.94-.86h.12c7.07-.61,14.1-.9,21.1-.86,7,.04,14.05.44,21.17,1.21.53.15.96.46,1.26.92.3.38.57.98.8,1.78.23.8.3,1.86.23,3.16-.08,1.38-.19,2.79-.34,4.25Z"/>
  </g>
</svg>